{
  "accessors": [
    {
      "bufferView": 1,
      "componentType": 5126,
      "count": 16134,
      "max": [
        -8.764200210571289,
        -39.0,
        2.0
      ],
      "min": [
        -31.0,
        -51.0,
        -22.261999130249023
      ],
      "type": "VEC3"
    },
    {
      "bufferView": 1,
      "byteOffset": 193608,
      "componentType": 5126,
      "count": 16134,
      "max": [
        1.0,
        1.0,
        1.0
      ],
      "min": [
        -1.0,
        -1.0,
        -1.0
      ],
      "type": "VEC3"
    },
    {
      "bufferView": 0,
      "componentType": 5125,
      "count": 50661,
      "type": "SCALAR"
    },
    {
      "bufferView": 1,
      "byteOffset": 387216,
      "componentType": 5126,
      "count": 22232,
      "max": [
        25.0,
        -0.0,
        26.5
      ],
      "min": [
        -49.5,
        -46.0,
        -48.0
      ],
      "type": "VEC3"
    },
    {
      "bufferView": 1,
      "byteOffset": 654000,
      "componentType": 5126,
      "count": 22232,
      "max": [
        1.0,
        1.0,
        1.0
      ],
      "min": [
        -1.0,
        -1.0,
        -1.0
      ],
      "type": "VEC3"
    },
    {
      "bufferView": 0,
      "byteOffset": 202644,
      "componentType": 5125,
      "count": 72930,
      "type": "SCALAR"
    },
    {
      "bufferView": 1,
      "byteOffset": 920784,
      "componentType": 5126,
      "count": 19375,
      "max": [
        3.3399999141693115,
        -42.143001556396484,
        6.758999824523926
      ],
      "min": [
        -66.0,
        -59.54999923706055,
        -21.0
      ],
      "type": "VEC3"
    },
    {
      "bufferView": 1,
      "byteOffset": 1153284,
      "componentType": 5126,
      "count": 19375,
      "max": [
        1.0,
        1.0,
        1.0
      ],
      "min": [
        -0.9999999403953552,
        -0.9999411106109619,
        -1.0
      ],
      "type": "VEC3"
    },
    {
      "bufferView": 0,
      "byteOffset": 494364,
      "componentType": 5125,
      "count": 78612,
      "type": "SCALAR"
    },
    {
      "bufferView": 1,
      "byteOffset": 1385784,
      "componentType": 5126,
      "count": 8418,
      "max": [
        44.0,
        -4.0,
        19.999000549316406
      ],
      "min": [
        -72.0,
        -47.0,
        -44.0
      ],
      "type": "VEC3"
    },
    {
      "bufferView": 1,
      "byteOffset": 1486800,
      "componentType": 5126,
      "count": 8418,
      "max": [
        1.0,
        1.0,
        1.0
      ],
      "min": [
        -1.0,
        -1.0,
        -1.0
      ],
      "type": "VEC3"
    },
    {
      "bufferView": 0,
      "byteOffset": 808812,
      "componentType": 5125,
      "count": 38628,
      "type": "SCALAR"
    },
    {
      "bufferView": 1,
      "byteOffset": 1587816,
      "componentType": 5126,
      "count": 3211,
      "max": [
        -2.6679999828338623,
        -43.0,
        -15.811200141906738
      ],
      "min": [
        -18.332000732421875,
        -49.0,
        -31.325000762939453
      ],
      "type": "VEC3"
    },
    {
      "bufferView": 1,
      "byteOffset": 1626348,
      "componentType": 5126,
      "count": 3211,
      "max": [
        0.9999774694442749,
        1.0,
        0.9855811595916748
      ],
      "min": [
        -1.0,
        -1.0,
        -0.9999285936355591
      ],
      "type": "VEC3"
    },
    {
      "bufferView": 0,
      "byteOffset": 963324,
      "componentType": 5125,
      "count": 15357,
      "type": "SCALAR"
    },
    {
      "bufferView": 1,
      "byteOffset": 1664880,
      "componentType": 5126,
      "count": 4505,
      "max": [
        -10.0,
        37.0,
        60.0
      ],
      "min": [
        -20.0,
        -85.0,
        -84.99700164794922
      ],
      "type": "VEC3"
    },
    {
      "bufferView": 1,
      "byteOffset": 1718940,
      "componentType": 5126,
      "count": 4505,
      "max": [
        0.9999998211860657,
        1.0,
        0.9998867511749268
      ],
      "min": [
        -0.9999998807907104,
        -1.0,
        -0.9998867511749268
      ],
      "type": "VEC3"
    },
    {
      "bufferView": 0,
      "byteOffset": 1024752,
      "componentType": 5125,
      "count": 26070,
      "type": "SCALAR"
    },
    {
      "bufferView": 1,
      "byteOffset": 1773000,
      "componentType": 5126,
      "count": 4067,
      "max": [
        -43.02470016479492,
        -16.527999877929688,
        2.0
      ],
      "min": [
        -71.62999725341797,
        -59.0,
        -24.0
      ],
      "type": "VEC3"
    },
    {
      "bufferView": 1,
      "byteOffset": 1821804,
      "componentType": 5126,
      "count": 4067,
      "max": [
        0.9999945759773254,
        1.0,
        0.9999905228614807
      ],
      "min": [
        -1.0,
        -1.0,
        -0.9999997615814209
      ],
      "type": "VEC3"
    },
    {
      "bufferView": 0,
      "byteOffset": 1129032,
      "componentType": 5125,
      "count": 17193,
      "type": "SCALAR"
    },
    {
      "bufferView": 1,
      "byteOffset": 1870608,
      "componentType": 5126,
      "count": 4375,
      "max": [
        5.940000057220459,
        -46.050201416015625,
        -9.210800170898438
      ],
      "min": [
        -8.069199562072754,
        -60.02299880981445,
        -22.64699935913086
      ],
      "type": "VEC3"
    },
    {
      "bufferView": 1,
      "byteOffset": 1923108,
      "componentType": 5126,
      "count": 4375,
      "max": [
        1.0,
        0.9927099943161011,
        1.0
      ],
      "min": [
        -1.0,
        -1.0,
        -0.9980792999267578
      ],
      "type": "VEC3"
    },
    {
      "bufferView": 0,
      "byteOffset": 1197804,
      "componentType": 5125,
      "count": 13743,
      "type": "SCALAR"
    },
    {
      "bufferView": 1,
      "byteOffset": 1975608,
      "componentType": 5126,
      "count": 1295,
      "max": [
        -13.140999794006348,
        -45.0,
        -4.0
      ],
      "min": [
        -24.124799728393555,
        -56.02899932861328,
        -16.0
      ],
      "type": "VEC3"
    },
    {
      "bufferView": 1,
      "byteOffset": 1991148,
      "componentType": 5126,
      "count": 1295,
      "max": [
        0.9910882711410522,
        0.9943172335624695,
        0.9412819743156433
      ],
      "min": [
        -0.9423235058784485,
        -0.973239004611969,
        -1.0
      ],
      "type": "VEC3"
    },
    {
      "bufferView": 0,
      "byteOffset": 1252776,
      "componentType": 5125,
      "count": 3723,
      "type": "SCALAR"
    }
  ],
  "asset": {
    "extras": {
      "author": "A Random Acorn ฅ՞•ﻌ•՞ฅ (https://sketchfab.com/I_think_im_a_toaster_now_0o0)",
      "license": "CC-BY-4.0 (http://creativecommons.org/licenses/by/4.0/)",
      "source": "https://sketchfab.com/3d-models/waffle-cat-sandwich-3-52289763f9c146698a38007bc0672cd9",
      "title": "Waffle Cat Sandwich :3"
    },
    "generator": "Sketchfab-16.60.0",
    "version": "2.0"
  },
  "bufferViews": [
    {
      "buffer": 0,
      "byteLength": 1267668,
      "name": "floatBufferViews",
      "target": 34963
    },
    {
      "buffer": 0,
      "byteLength": 2006688,
      "byteOffset": 1267668,
      "byteStride": 12,
      "name": "floatBufferViews",
      "target": 34962
    }
  ],
  "buffers": [
    {
      "byteLength": 3274356,
      "uri": "scene.bin"
    }
  ],
  "materials": [
    {
      "doubleSided": true,
      "name": "color_14541540",
      "pbrMetallicRoughness": {
        "baseColorFactor": [
          0.979986380953846,
          0.649336782747085,
          0.4137323924652686,
          1.0
        ],
        "metallicFactor": 0.0
      }
    },
    {
      "doubleSided": true,
      "name": "color_14860437",
      "pbrMetallicRoughness": {
        "baseColorFactor": [
          0.9899636880863927,
          0.5726622491272255,
          0.19228831947561134,
          1.0
        ],
        "metallicFactor": 0.0
      }
    },
    {
      "doubleSided": true,
      "name": "color_15277357",
      "pbrMetallicRoughness": {
        "baseColorFactor": [
          0.9700679790705267,
          0.03069824121968648,
          0.0770394086296141,
          1.0
        ],
        "metallicFactor": 0.0
      }
    },
    {
      "doubleSided": true,
      "name": "color_16089887",
      "pbrMetallicRoughness": {
        "baseColorFactor": [
          0.8741016688625401,
          0.2894055494561469,
          0.001291100956336067,
          1.0
        ],
        "metallicFactor": 0.0
      }
    },
    {
      "doubleSided": true,
      "name": "color_16768282",
      "pbrMetallicRoughness": {
        "baseColorFactor": [
          0.9504074916579607,
          0.7905227490188202,
          0.024189036068508085,
          1.0
        ],
        "metallicFactor": 0.0
      }
    },
    {
      "doubleSided": true,
      "name": "color_16770912",
      "pbrMetallicRoughness": {
        "baseColorFactor": [
          1.0,
          0.8122474775229275,
          0.06116867716040303,
          1.0
        ],
        "metallicFactor": 0.0
      }
    },
    {
      "doubleSided": true,
      "name": "color_2829873",
      "pbrMetallicRoughness": {
        "baseColorFactor": [
          0.0020730353383424036,
          0.005669556862277652,
          0.011011230500289834,
          1.0
        ],
        "metallicFactor": 0.0
      }
    },
    {
      "doubleSided": true,
      "name": "color_4634441",
      "pbrMetallicRoughness": {
        "baseColorFactor": [
          0.03447395850095217,
          0.8741016688625401,
          0.04351912078488045,
          1.0
        ],
        "metallicFactor": 0.0
      }
    },
    {
      "doubleSided": true,
      "name": "color_6306067",
      "pbrMetallicRoughness": {
        "baseColorFactor": [
          0.12554694619288637,
          0.05490983281607501,
          0.005288085337949029,
          1.0
        ],
        "metallicFactor": 0.0
      }
    }
  ],
  "meshes": [
    {
      "name": "Object_0",
      "primitives": [
        {
          "attributes": {
            "NORMAL": 1,
            "POSITION": 0
          },
          "indices": 2,
          "material": 0,
          "mode": 4
        }
      ]
    },
    {
      "name": "Object_1",
      "primitives": [
        {
          "attributes": {
            "NORMAL": 4,
            "POSITION": 3
          },
          "indices": 5,
          "material": 1,
          "mode": 4
        }
      ]
    },
    {
      "name": "Object_2",
      "primitives": [
        {
          "attributes": {
            "NORMAL": 7,
            "POSITION": 6
          },
          "indices": 8,
          "material": 2,
          "mode": 4
        }
      ]
    },
    {
      "name": "Object_3",
      "primitives": [
        {
          "attributes": {
            "NORMAL": 10,
            "POSITION": 9
          },
          "indices": 11,
          "material": 3,
          "mode": 4
        }
      ]
    },
    {
      "name": "Object_4",
      "primitives": [
        {
          "attributes": {
            "NORMAL": 13,
            "POSITION": 12
          },
          "indices": 14,
          "material": 4,
          "mode": 4
        }
      ]
    },
    {
      "name": "Object_5",
      "primitives": [
        {
          "attributes": {
            "NORMAL": 16,
            "POSITION": 15
          },
          "indices": 17,
          "material": 5,
          "mode": 4
        }
      ]
    },
    {
      "name": "Object_6",
      "primitives": [
        {
          "attributes": {
            "NORMAL": 19,
            "POSITION": 18
          },
          "indices": 20,
          "material": 6,
          "mode": 4
        }
      ]
    },
    {
      "name": "Object_7",
      "primitives": [
        {
          "attributes": {
            "NORMAL": 22,
            "POSITION": 21
          },
          "indices": 23,
          "material": 7,
          "mode": 4
        }
      ]
    },
    {
      "name": "Object_8",
      "primitives": [
        {
          "attributes": {
            "NORMAL": 25,
            "POSITION": 24
          },
          "indices": 26,
          "material": 8,
          "mode": 4
        }
      ]
    }
  ],
  "nodes": [
    {
      "children": [
        1
      ],
      "matrix": [
        -5.551115123125783e-17,
        0.0015084916958587602,
        -0.9999988675117493,
        0.0,
        -1.1102230246251565e-16,
        -0.9999988675117493,
        -0.0015084916958587602,
        0.0,
        -1.0,
        1.1102230246251563e-16,
        1.1102230246251568e-16,
        0.0,
        0.0,
        0.0,
        0.0,
        1.0
      ],
      "name": "Sketchfab_model"
    },
    {
      "children": [
        2,
        3,
        4,
        5,
        6,
        7,
        8,
        9,
        10
      ],
      "name": "tinker.obj.cleaner.materialmerger.gles"
    },
    {
      "mesh": 0,
      "name": "Object_2"
    },
    {
      "mesh": 1,
      "name": "Object_3"
    },
    {
      "mesh": 2,
      "name": "Object_4"
    },
    {
      "mesh": 3,
      "name": "Object_5"
    },
    {
      "mesh": 4,
      "name": "Object_6"
    },
    {
      "mesh": 5,
      "name": "Object_7"
    },
    {
      "mesh": 6,
      "name": "Object_8"
    },
    {
      "mesh": 7,
      "name": "Object_9"
    },
    {
      "mesh": 8,
      "name": "Object_10"
    }
  ],
  "scene": 0,
  "scenes": [
    {
      "name": "Sketchfab_Scene",
      "nodes": [
        0
      ]
    }
  ]
}
